<svg id="visual" viewBox="0 0 900 600" width="900" height="600" xmlns="http://www.w3.org/2000/svg" xmlns:xlink="http://www.w3.org/1999/xlink" version="1.1"><rect x="0" y="0" width="900" height="600" fill="#001220"></rect><defs><linearGradient id="grad1_0" x1="33.3%" y1="0%" x2="100%" y2="100%"><stop offset="20%" stop-color="#fbae3c" stop-opacity="1"></stop><stop offset="80%" stop-color="#fbae3c" stop-opacity="1"></stop></linearGradient></defs><defs><linearGradient id="grad1_1" x1="33.3%" y1="0%" x2="100%" y2="100%"><stop offset="20%" stop-color="#fbae3c" stop-opacity="1"></stop><stop offset="80%" stop-color="#f48350" stop-opacity="1"></stop></linearGradient></defs><defs><linearGradient id="grad1_2" x1="33.3%" y1="0%" x2="100%" y2="100%"><stop offset="20%" stop-color="#d96162" stop-opacity="1"></stop><stop offset="80%" stop-color="#f48350" stop-opacity="1"></stop></linearGradient></defs><defs><linearGradient id="grad1_3" x1="33.3%" y1="0%" x2="100%" y2="100%"><stop offset="20%" stop-color="#d96162" stop-opacity="1"></stop><stop offset="80%" stop-color="#af4b6d" stop-opacity="1"></stop></linearGradient></defs><defs><linearGradient id="grad1_4" x1="33.3%" y1="0%" x2="100%" y2="100%"><stop offset="20%" stop-color="#7c3e6b" stop-opacity="1"></stop><stop offset="80%" stop-color="#af4b6d" stop-opacity="1"></stop></linearGradient></defs><defs><linearGradient id="grad1_5" x1="33.3%" y1="0%" x2="100%" y2="100%"><stop offset="20%" stop-color="#7c3e6b" stop-opacity="1"></stop><stop offset="80%" stop-color="#49335c" stop-opacity="1"></stop></linearGradient></defs><defs><linearGradient id="grad1_6" x1="33.3%" y1="0%" x2="100%" y2="100%"><stop offset="20%" stop-color="#1d2540" stop-opacity="1"></stop><stop offset="80%" stop-color="#49335c" stop-opacity="1"></stop></linearGradient></defs><defs><linearGradient id="grad1_7" x1="33.3%" y1="0%" x2="100%" y2="100%"><stop offset="20%" stop-color="#1d2540" stop-opacity="1"></stop><stop offset="80%" stop-color="#001220" stop-opacity="1"></stop></linearGradient></defs><defs><linearGradient id="grad2_0" x1="0%" y1="0%" x2="66.7%" y2="100%"><stop offset="20%" stop-color="#fbae3c" stop-opacity="1"></stop><stop offset="80%" stop-color="#fbae3c" stop-opacity="1"></stop></linearGradient></defs><defs><linearGradient id="grad2_1" x1="0%" y1="0%" x2="66.7%" y2="100%"><stop offset="20%" stop-color="#f48350" stop-opacity="1"></stop><stop offset="80%" stop-color="#fbae3c" stop-opacity="1"></stop></linearGradient></defs><defs><linearGradient id="grad2_2" x1="0%" y1="0%" x2="66.7%" y2="100%"><stop offset="20%" stop-color="#f48350" stop-opacity="1"></stop><stop offset="80%" stop-color="#d96162" stop-opacity="1"></stop></linearGradient></defs><defs><linearGradient id="grad2_3" x1="0%" y1="0%" x2="66.7%" y2="100%"><stop offset="20%" stop-color="#af4b6d" stop-opacity="1"></stop><stop offset="80%" stop-color="#d96162" stop-opacity="1"></stop></linearGradient></defs><defs><linearGradient id="grad2_4" x1="0%" y1="0%" x2="66.7%" y2="100%"><stop offset="20%" stop-color="#af4b6d" stop-opacity="1"></stop><stop offset="80%" stop-color="#7c3e6b" stop-opacity="1"></stop></linearGradient></defs><defs><linearGradient id="grad2_5" x1="0%" y1="0%" x2="66.7%" y2="100%"><stop offset="20%" stop-color="#49335c" stop-opacity="1"></stop><stop offset="80%" stop-color="#7c3e6b" stop-opacity="1"></stop></linearGradient></defs><defs><linearGradient id="grad2_6" x1="0%" y1="0%" x2="66.7%" y2="100%"><stop offset="20%" stop-color="#49335c" stop-opacity="1"></stop><stop offset="80%" stop-color="#1d2540" stop-opacity="1"></stop></linearGradient></defs><defs><linearGradient id="grad2_7" x1="0%" y1="0%" x2="66.7%" y2="100%"><stop offset="20%" stop-color="#001220" stop-opacity="1"></stop><stop offset="80%" stop-color="#1d2540" stop-opacity="1"></stop></linearGradient></defs><g transform="translate(900, 0)"><path d="M0 297.5C-52.1 289.7 -104.2 282 -148.7 257.6C-193.3 233.2 -230.2 192.2 -253.7 146.5C-277.3 100.8 -287.4 50.4 -297.5 0L0 0Z" fill="#0c1c30"></path><path d="M0 260.3C-45.6 253.5 -91.2 246.7 -130.1 225.4C-169.1 204.1 -201.4 168.2 -222 128.2C-242.6 88.2 -251.4 44.1 -260.3 0L0 0Z" fill="#312c4f"></path><path d="M0 223.1C-39.1 217.3 -78.1 211.5 -111.5 193.2C-144.9 174.9 -172.7 144.2 -190.3 109.9C-208 75.6 -215.5 37.8 -223.1 0L0 0Z" fill="#623965"></path><path d="M0 185.9C-32.6 181.1 -65.1 176.2 -93 161C-120.8 145.8 -143.9 120.1 -158.6 91.6C-173.3 63 -179.6 31.5 -185.9 0L0 0Z" fill="#96446e"></path><path d="M0 148.7C-26 144.9 -52.1 141 -74.4 128.8C-96.6 116.6 -115.1 96.1 -126.9 73.3C-138.6 50.4 -143.7 25.2 -148.7 0L0 0Z" fill="#c55469"></path><path d="M0 111.5C-19.5 108.6 -39.1 105.7 -55.8 96.6C-72.5 87.5 -86.3 72.1 -95.2 54.9C-104 37.8 -107.8 18.9 -111.5 0L0 0Z" fill="#e9705a"></path><path d="M0 74.4C-13 72.4 -26 70.5 -37.2 64.4C-48.3 58.3 -57.6 48.1 -63.4 36.6C-69.3 25.2 -71.8 12.6 -74.4 0L0 0Z" fill="#fa9845"></path><path d="M0 37.2C-6.5 36.2 -13 35.2 -18.6 32.2C-24.2 29.2 -28.8 24 -31.7 18.3C-34.7 12.6 -35.9 6.3 -37.2 0L0 0Z" fill="#fbae3c"></path></g><g transform="translate(0, 600)"><path d="M0 -297.5C49.1 -285.1 98.1 -272.7 144 -249.4C189.9 -226.2 232.6 -192.1 257.6 -148.7C282.7 -105.4 290.1 -52.7 297.5 0L0 0Z" fill="#0c1c30"></path><path d="M0 -260.3C42.9 -249.4 85.9 -238.6 126 -218.2C166.1 -197.9 203.5 -168.1 225.4 -130.1C247.3 -92.2 253.8 -46.1 260.3 0L0 0Z" fill="#312c4f"></path><path d="M0 -223.1C36.8 -213.8 73.6 -204.5 108 -187.1C142.4 -169.6 174.4 -144.1 193.2 -111.5C212 -79 217.5 -39.5 223.1 0L0 0Z" fill="#623965"></path><path d="M0 -185.9C30.7 -178.2 61.3 -170.4 90 -155.9C118.7 -141.4 145.4 -120.1 161 -93C176.7 -65.8 181.3 -32.9 185.9 0L0 0Z" fill="#96446e"></path><path d="M0 -148.7C24.5 -142.5 49.1 -136.3 72 -124.7C94.9 -113.1 116.3 -96.1 128.8 -74.4C141.3 -52.7 145 -26.3 148.7 0L0 0Z" fill="#c55469"></path><path d="M0 -111.5C18.4 -106.9 36.8 -102.2 54 -93.5C71.2 -84.8 87.2 -72 96.6 -55.8C106 -39.5 108.8 -19.8 111.5 0L0 0Z" fill="#e9705a"></path><path d="M0 -74.4C12.3 -71.3 24.5 -68.2 36 -62.4C47.5 -56.5 58.1 -48 64.4 -37.2C70.7 -26.3 72.5 -13.2 74.4 0L0 0Z" fill="#fa9845"></path><path d="M0 -37.2C6.1 -35.6 12.3 -34.1 18 -31.2C23.7 -28.3 29.1 -24 32.2 -18.6C35.3 -13.2 36.3 -6.6 37.2 0L0 0Z" fill="#fbae3c"></path></g></svg>