<svg id="visual" viewBox="0 0 900 600" width="900" height="600" xmlns="http://www.w3.org/2000/svg" xmlns:xlink="http://www.w3.org/1999/xlink" version="1.1"><rect x="0" y="0" width="900" height="600" fill="#001220"></rect><defs><linearGradient id="grad1_0" x1="33.3%" y1="0%" x2="100%" y2="100%"><stop offset="20%" stop-color="#b9b9b9" stop-opacity="1"></stop><stop offset="80%" stop-color="#b9b9b9" stop-opacity="1"></stop></linearGradient></defs><defs><linearGradient id="grad1_1" x1="33.3%" y1="0%" x2="100%" y2="100%"><stop offset="20%" stop-color="#b9b9b9" stop-opacity="1"></stop><stop offset="80%" stop-color="#9c9ea1" stop-opacity="1"></stop></linearGradient></defs><defs><linearGradient id="grad1_2" x1="33.3%" y1="0%" x2="100%" y2="100%"><stop offset="20%" stop-color="#808489" stop-opacity="1"></stop><stop offset="80%" stop-color="#9c9ea1" stop-opacity="1"></stop></linearGradient></defs><defs><linearGradient id="grad1_3" x1="33.3%" y1="0%" x2="100%" y2="100%"><stop offset="20%" stop-color="#808489" stop-opacity="1"></stop><stop offset="80%" stop-color="#656b73" stop-opacity="1"></stop></linearGradient></defs><defs><linearGradient id="grad1_4" x1="33.3%" y1="0%" x2="100%" y2="100%"><stop offset="20%" stop-color="#4b535c" stop-opacity="1"></stop><stop offset="80%" stop-color="#656b73" stop-opacity="1"></stop></linearGradient></defs><defs><linearGradient id="grad1_5" x1="33.3%" y1="0%" x2="100%" y2="100%"><stop offset="20%" stop-color="#4b535c" stop-opacity="1"></stop><stop offset="80%" stop-color="#323c47" stop-opacity="1"></stop></linearGradient></defs><defs><linearGradient id="grad1_6" x1="33.3%" y1="0%" x2="100%" y2="100%"><stop offset="20%" stop-color="#1a2733" stop-opacity="1"></stop><stop offset="80%" stop-color="#323c47" stop-opacity="1"></stop></linearGradient></defs><defs><linearGradient id="grad1_7" x1="33.3%" y1="0%" x2="100%" y2="100%"><stop offset="20%" stop-color="#1a2733" stop-opacity="1"></stop><stop offset="80%" stop-color="#001220" stop-opacity="1"></stop></linearGradient></defs><defs><linearGradient id="grad2_0" x1="0%" y1="0%" x2="66.7%" y2="100%"><stop offset="20%" stop-color="#b9b9b9" stop-opacity="1"></stop><stop offset="80%" stop-color="#b9b9b9" stop-opacity="1"></stop></linearGradient></defs><defs><linearGradient id="grad2_1" x1="0%" y1="0%" x2="66.7%" y2="100%"><stop offset="20%" stop-color="#9c9ea1" stop-opacity="1"></stop><stop offset="80%" stop-color="#b9b9b9" stop-opacity="1"></stop></linearGradient></defs><defs><linearGradient id="grad2_2" x1="0%" y1="0%" x2="66.7%" y2="100%"><stop offset="20%" stop-color="#9c9ea1" stop-opacity="1"></stop><stop offset="80%" stop-color="#808489" stop-opacity="1"></stop></linearGradient></defs><defs><linearGradient id="grad2_3" x1="0%" y1="0%" x2="66.7%" y2="100%"><stop offset="20%" stop-color="#656b73" stop-opacity="1"></stop><stop offset="80%" stop-color="#808489" stop-opacity="1"></stop></linearGradient></defs><defs><linearGradient id="grad2_4" x1="0%" y1="0%" x2="66.7%" y2="100%"><stop offset="20%" stop-color="#656b73" stop-opacity="1"></stop><stop offset="80%" stop-color="#4b535c" stop-opacity="1"></stop></linearGradient></defs><defs><linearGradient id="grad2_5" x1="0%" y1="0%" x2="66.7%" y2="100%"><stop offset="20%" stop-color="#323c47" stop-opacity="1"></stop><stop offset="80%" stop-color="#4b535c" stop-opacity="1"></stop></linearGradient></defs><defs><linearGradient id="grad2_6" x1="0%" y1="0%" x2="66.7%" y2="100%"><stop offset="20%" stop-color="#323c47" stop-opacity="1"></stop><stop offset="80%" stop-color="#1a2733" stop-opacity="1"></stop></linearGradient></defs><defs><linearGradient id="grad2_7" x1="0%" y1="0%" x2="66.7%" y2="100%"><stop offset="20%" stop-color="#001220" stop-opacity="1"></stop><stop offset="80%" stop-color="#1a2733" stop-opacity="1"></stop></linearGradient></defs><g transform="translate(900, 0)"><path d="M0 270.4C-31.6 254 -63.1 237.5 -92.2 222.7C-121.3 207.8 -147.9 194.6 -176.1 176.1C-204.2 157.5 -233.9 133.7 -249.8 103.5C-265.8 73.3 -268.1 36.6 -270.4 0L0 0Z" fill="#0e1c29"></path><path d="M0 236.6C-27.6 222.2 -55.2 207.8 -80.7 194.8C-106.2 181.8 -129.4 170.3 -154.1 154.1C-178.7 137.9 -204.6 117 -218.6 90.5C-232.6 64.1 -234.6 32 -236.6 0L0 0Z" fill="#26313d"></path><path d="M0 202.8C-23.7 190.5 -47.4 178.1 -69.2 167C-91 155.9 -111 145.9 -132.1 132.1C-153.2 118.2 -175.4 100.3 -187.4 77.6C-199.4 54.9 -201.1 27.5 -202.8 0L0 0Z" fill="#3f4752"></path><path d="M0 169C-19.7 158.7 -39.5 148.4 -57.6 139.2C-75.8 129.9 -92.5 121.6 -110 110C-127.6 98.5 -146.2 83.6 -156.1 64.7C-166.1 45.8 -167.6 22.9 -169 0L0 0Z" fill="#585f67"></path><path d="M0 135.2C-15.8 127 -31.6 118.7 -46.1 111.3C-60.7 103.9 -74 97.3 -88 88C-102.1 78.8 -116.9 66.9 -124.9 51.7C-132.9 36.6 -134.1 18.3 -135.2 0L0 0Z" fill="#73787e"></path><path d="M0 101.4C-11.8 95.2 -23.7 89.1 -34.6 83.5C-45.5 77.9 -55.5 73 -66 66C-76.6 59.1 -87.7 50.1 -93.7 38.8C-99.7 27.5 -100.5 13.7 -101.4 0L0 0Z" fill="#8e9195"></path><path d="M0 67.6C-7.9 63.5 -15.8 59.4 -23.1 55.7C-30.3 52 -37 48.6 -44 44C-51.1 39.4 -58.5 33.4 -62.5 25.9C-66.5 18.3 -67 9.2 -67.6 0L0 0Z" fill="#abacad"></path><path d="M0 33.8C-3.9 31.7 -7.9 29.7 -11.5 27.8C-15.2 26 -18.5 24.3 -22 22C-25.5 19.7 -29.2 16.7 -31.2 12.9C-33.2 9.2 -33.5 4.6 -33.8 0L0 0Z" fill="#b9b9b9"></path></g><g transform="translate(0, 600)"><path d="M0 -270.4C30.3 -256.3 60.6 -242.1 96.1 -231.9C131.5 -221.7 172 -215.3 191.2 -191.2C210.4 -167.1 208.4 -125.2 218 -90.3C227.7 -55.5 249.1 -27.7 270.4 0L0 0Z" fill="#0e1c29"></path><path d="M0 -236.6C26.5 -224.2 53.1 -211.9 84 -202.9C115 -194 150.5 -188.4 167.3 -167.3C184.1 -146.2 182.3 -109.5 190.8 -79C199.2 -48.5 217.9 -24.3 236.6 0L0 0Z" fill="#26313d"></path><path d="M0 -202.8C22.7 -192.2 45.5 -181.6 72 -173.9C98.6 -166.2 129 -161.5 143.4 -143.4C157.8 -125.3 156.3 -93.9 163.5 -67.7C170.8 -41.6 186.8 -20.8 202.8 0L0 0Z" fill="#3f4752"></path><path d="M0 -169C18.9 -160.2 37.9 -151.3 60 -144.9C82.2 -138.5 107.5 -134.6 119.5 -119.5C131.5 -104.4 130.2 -78.2 136.3 -56.4C142.3 -34.7 155.7 -17.3 169 0L0 0Z" fill="#585f67"></path><path d="M0 -135.2C15.2 -128.1 30.3 -121.1 48 -115.9C65.7 -110.8 86 -107.7 95.6 -95.6C105.2 -83.5 104.2 -62.6 109 -45.2C113.8 -27.7 124.5 -13.9 135.2 0L0 0Z" fill="#73787e"></path><path d="M0 -101.4C11.4 -96.1 22.7 -90.8 36 -87C49.3 -83.1 64.5 -80.8 71.7 -71.7C78.9 -62.7 78.1 -46.9 81.8 -33.9C85.4 -20.8 93.4 -10.4 101.4 0L0 0Z" fill="#8e9195"></path><path d="M0 -67.6C7.6 -64.1 15.2 -60.5 24 -58C32.9 -55.4 43 -53.8 47.8 -47.8C52.6 -41.8 52.1 -31.3 54.5 -22.6C56.9 -13.9 62.3 -6.9 67.6 0L0 0Z" fill="#abacad"></path><path d="M0 -33.8C3.8 -32 7.6 -30.3 12 -29C16.4 -27.7 21.5 -26.9 23.9 -23.9C26.3 -20.9 26 -15.6 27.3 -11.3C28.5 -6.9 31.1 -3.5 33.8 0L0 0Z" fill="#b9b9b9"></path></g></svg>