<svg id="visual" viewBox="0 0 960 450" width="960" height="450" xmlns="http://www.w3.org/2000/svg" xmlns:xlink="http://www.w3.org/1999/xlink" version="1.1"><rect x="0" y="0" width="960" height="450" fill="#001220"></rect><defs><linearGradient id="grad1_0" x1="53.1%" y1="0%" x2="100%" y2="100%"><stop offset="7.333333333333333%" stop-color="#fbae3c" stop-opacity="1"></stop><stop offset="92.66666666666667%" stop-color="#fbae3c" stop-opacity="1"></stop></linearGradient></defs><defs><linearGradient id="grad1_1" x1="53.1%" y1="0%" x2="100%" y2="100%"><stop offset="7.333333333333333%" stop-color="#fbae3c" stop-opacity="1"></stop><stop offset="92.66666666666667%" stop-color="#f48350" stop-opacity="1"></stop></linearGradient></defs><defs><linearGradient id="grad1_2" x1="53.1%" y1="0%" x2="100%" y2="100%"><stop offset="7.333333333333333%" stop-color="#d96162" stop-opacity="1"></stop><stop offset="92.66666666666667%" stop-color="#f48350" stop-opacity="1"></stop></linearGradient></defs><defs><linearGradient id="grad1_3" x1="53.1%" y1="0%" x2="100%" y2="100%"><stop offset="7.333333333333333%" stop-color="#d96162" stop-opacity="1"></stop><stop offset="92.66666666666667%" stop-color="#af4b6d" stop-opacity="1"></stop></linearGradient></defs><defs><linearGradient id="grad1_4" x1="53.1%" y1="0%" x2="100%" y2="100%"><stop offset="7.333333333333333%" stop-color="#7c3e6b" stop-opacity="1"></stop><stop offset="92.66666666666667%" stop-color="#af4b6d" stop-opacity="1"></stop></linearGradient></defs><defs><linearGradient id="grad1_5" x1="53.1%" y1="0%" x2="100%" y2="100%"><stop offset="7.333333333333333%" stop-color="#7c3e6b" stop-opacity="1"></stop><stop offset="92.66666666666667%" stop-color="#49335c" stop-opacity="1"></stop></linearGradient></defs><defs><linearGradient id="grad1_6" x1="53.1%" y1="0%" x2="100%" y2="100%"><stop offset="7.333333333333333%" stop-color="#1d2540" stop-opacity="1"></stop><stop offset="92.66666666666667%" stop-color="#49335c" stop-opacity="1"></stop></linearGradient></defs><defs><linearGradient id="grad1_7" x1="53.1%" y1="0%" x2="100%" y2="100%"><stop offset="7.333333333333333%" stop-color="#1d2540" stop-opacity="1"></stop><stop offset="92.66666666666667%" stop-color="#001220" stop-opacity="1"></stop></linearGradient></defs><defs><linearGradient id="grad2_0" x1="0%" y1="0%" x2="46.9%" y2="100%"><stop offset="7.333333333333333%" stop-color="#fbae3c" stop-opacity="1"></stop><stop offset="92.66666666666667%" stop-color="#fbae3c" stop-opacity="1"></stop></linearGradient></defs><defs><linearGradient id="grad2_1" x1="0%" y1="0%" x2="46.9%" y2="100%"><stop offset="7.333333333333333%" stop-color="#f48350" stop-opacity="1"></stop><stop offset="92.66666666666667%" stop-color="#fbae3c" stop-opacity="1"></stop></linearGradient></defs><defs><linearGradient id="grad2_2" x1="0%" y1="0%" x2="46.9%" y2="100%"><stop offset="7.333333333333333%" stop-color="#f48350" stop-opacity="1"></stop><stop offset="92.66666666666667%" stop-color="#d96162" stop-opacity="1"></stop></linearGradient></defs><defs><linearGradient id="grad2_3" x1="0%" y1="0%" x2="46.9%" y2="100%"><stop offset="7.333333333333333%" stop-color="#af4b6d" stop-opacity="1"></stop><stop offset="92.66666666666667%" stop-color="#d96162" stop-opacity="1"></stop></linearGradient></defs><defs><linearGradient id="grad2_4" x1="0%" y1="0%" x2="46.9%" y2="100%"><stop offset="7.333333333333333%" stop-color="#af4b6d" stop-opacity="1"></stop><stop offset="92.66666666666667%" stop-color="#7c3e6b" stop-opacity="1"></stop></linearGradient></defs><defs><linearGradient id="grad2_5" x1="0%" y1="0%" x2="46.9%" y2="100%"><stop offset="7.333333333333333%" stop-color="#49335c" stop-opacity="1"></stop><stop offset="92.66666666666667%" stop-color="#7c3e6b" stop-opacity="1"></stop></linearGradient></defs><defs><linearGradient id="grad2_6" x1="0%" y1="0%" x2="46.9%" y2="100%"><stop offset="7.333333333333333%" stop-color="#49335c" stop-opacity="1"></stop><stop offset="92.66666666666667%" stop-color="#1d2540" stop-opacity="1"></stop></linearGradient></defs><defs><linearGradient id="grad2_7" x1="0%" y1="0%" x2="46.9%" y2="100%"><stop offset="7.333333333333333%" stop-color="#001220" stop-opacity="1"></stop><stop offset="92.66666666666667%" stop-color="#1d2540" stop-opacity="1"></stop></linearGradient></defs><g transform="translate(960, 0)"><path d="M0 382.5C-26.8 372.8 -53.6 363 -81.7 357.8C-109.7 352.6 -138.9 351.8 -164.4 341.5C-190 331.1 -211.9 311 -231.9 290.8C-252 270.6 -270.2 250.3 -286.9 228.8C-303.7 207.4 -319 184.8 -334.3 161C-349.6 137.2 -364.9 112.1 -372.9 85.1C-381 58.1 -381.7 29 -382.5 0L0 0Z" fill="#0c1c30"></path><path d="M0 334.7C-23.5 326.2 -46.9 317.6 -71.5 313.1C-96 308.5 -121.5 307.9 -143.9 298.8C-166.2 289.7 -185.4 272.2 -202.9 254.5C-220.5 236.8 -236.4 219 -251.1 200.2C-265.7 181.4 -279.1 161.7 -292.5 140.8C-305.9 120 -319.3 98.1 -326.3 74.5C-333.3 50.8 -334 25.4 -334.7 0L0 0Z" fill="#312c4f"></path><path d="M0 286.9C-20.1 279.6 -40.2 272.3 -61.2 268.3C-82.3 264.4 -104.2 263.9 -123.3 256.1C-142.5 248.3 -158.9 233.3 -174 218.1C-189 203 -202.6 187.7 -215.2 171.6C-227.8 155.5 -239.2 138.6 -250.7 120.7C-262.2 102.9 -273.7 84.1 -279.7 63.8C-285.7 43.6 -286.3 21.8 -286.9 0L0 0Z" fill="#623965"></path><path d="M0 239.1C-16.8 233 -33.5 226.9 -51 223.6C-68.6 220.4 -86.8 219.9 -102.8 213.4C-118.7 206.9 -132.4 194.4 -145 181.8C-157.5 169.2 -168.9 156.4 -179.3 143C-189.8 129.6 -199.4 115.5 -208.9 100.6C-218.5 85.7 -228 70.1 -233.1 53.2C-238.1 36.3 -238.6 18.2 -239.1 0L0 0Z" fill="#96446e"></path><path d="M0 191.3C-13.4 186.4 -26.8 181.5 -40.8 178.9C-54.8 176.3 -69.4 175.9 -82.2 170.7C-95 165.5 -105.9 155.5 -116 145.4C-126 135.3 -135.1 125.1 -143.5 114.4C-151.8 103.7 -159.5 92.4 -167.1 80.5C-174.8 68.6 -182.4 56.1 -186.5 42.6C-190.5 29 -190.9 14.5 -191.2 0L0 0Z" fill="#c55469"></path><path d="M0 143.4C-10.1 139.8 -20.1 136.1 -30.6 134.2C-41.1 132.2 -52.1 131.9 -61.7 128.1C-71.2 124.2 -79.5 116.6 -87 109.1C-94.5 101.5 -101.3 93.9 -107.6 85.8C-113.9 77.8 -119.6 69.3 -125.3 60.4C-131.1 51.4 -136.8 42.1 -139.8 31.9C-142.9 21.8 -143.1 10.9 -143.4 0L0 0Z" fill="#e9705a"></path><path d="M0 95.6C-6.7 93.2 -13.4 90.8 -20.4 89.4C-27.4 88.1 -34.7 88 -41.1 85.4C-47.5 82.8 -53 77.8 -58 72.7C-63 67.7 -67.5 62.6 -71.7 57.2C-75.9 51.8 -79.7 46.2 -83.6 40.2C-87.4 34.3 -91.2 28 -93.2 21.3C-95.2 14.5 -95.4 7.3 -95.6 0L0 0Z" fill="#fa9845"></path><path d="M0 47.8C-3.4 46.6 -6.7 45.4 -10.2 44.7C-13.7 44.1 -17.4 44 -20.6 42.7C-23.7 41.4 -26.5 38.9 -29 36.4C-31.5 33.8 -33.8 31.3 -35.9 28.6C-38 25.9 -39.9 23.1 -41.8 20.1C-43.7 17.1 -45.6 14 -46.6 10.6C-47.6 7.3 -47.7 3.6 -47.8 0L0 0Z" fill="#fbae3c"></path></g><g transform="translate(0, 450)"><path d="M0 -382.5C29.3 -382.3 58.6 -382.2 85.1 -372.9C111.6 -363.7 135.3 -345.4 159.2 -330.7C183.2 -316 207.5 -304.9 231.9 -290.8C256.4 -276.8 280.9 -259.9 297.9 -237.5C314.8 -215.2 324.1 -187.4 334.3 -161C344.4 -134.6 355.5 -109.6 363.6 -83C371.8 -56.4 377.2 -28.2 382.5 0L0 0Z" fill="#0c1c30"></path><path d="M0 -334.7C25.6 -334.5 51.3 -334.4 74.5 -326.3C97.7 -318.2 118.4 -302.2 139.3 -289.3C160.3 -276.5 181.6 -266.7 202.9 -254.5C224.3 -242.2 245.8 -227.4 260.6 -207.9C275.5 -188.3 283.6 -163.9 292.5 -140.8C301.4 -117.8 311 -95.9 318.2 -72.6C325.4 -49.4 330 -24.7 334.7 0L0 0Z" fill="#312c4f"></path><path d="M0 -286.9C22 -286.7 44 -286.6 63.8 -279.7C83.7 -272.8 101.4 -259 119.4 -248C137.4 -237 155.6 -228.6 174 -218.1C192.3 -207.6 210.7 -194.9 223.4 -178.2C236.1 -161.4 243.1 -140.5 250.7 -120.7C258.3 -100.9 266.6 -82.2 272.7 -62.3C278.9 -42.3 282.9 -21.2 286.9 0L0 0Z" fill="#623965"></path><path d="M0 -239.1C18.3 -239 36.6 -238.8 53.2 -233.1C69.8 -227.3 84.5 -215.9 99.5 -206.7C114.5 -197.5 129.7 -190.5 145 -181.8C160.2 -173 175.6 -162.4 186.2 -148.5C196.8 -134.5 202.6 -117.1 208.9 -100.6C215.3 -84.1 222.2 -68.5 227.3 -51.9C232.4 -35.3 235.7 -17.6 239.1 0L0 0Z" fill="#96446e"></path><path d="M0 -191.2C14.7 -191.2 29.3 -191.1 42.6 -186.5C55.8 -181.8 67.6 -172.7 79.6 -165.3C91.6 -158 103.8 -152.4 116 -145.4C128.2 -138.4 140.5 -130 148.9 -118.8C157.4 -107.6 162 -93.7 167.1 -80.5C172.2 -67.3 177.7 -54.8 181.8 -41.5C185.9 -28.2 188.6 -14.1 191.3 0L0 0Z" fill="#c55469"></path><path d="M0 -143.4C11 -143.4 22 -143.3 31.9 -139.8C41.9 -136.4 50.7 -129.5 59.7 -124C68.7 -118.5 77.8 -114.3 87 -109.1C96.1 -103.8 105.4 -97.5 111.7 -89.1C118.1 -80.7 121.5 -70.3 125.3 -60.4C129.2 -50.5 133.3 -41.1 136.4 -31.1C139.4 -21.2 141.4 -10.6 143.4 0L0 0Z" fill="#e9705a"></path><path d="M0 -95.6C7.3 -95.6 14.7 -95.5 21.3 -93.2C27.9 -90.9 33.8 -86.3 39.8 -82.7C45.8 -79 51.9 -76.2 58 -72.7C64.1 -69.2 70.2 -65 74.5 -59.4C78.7 -53.8 81 -46.8 83.6 -40.2C86.1 -33.6 88.9 -27.4 90.9 -20.8C93 -14.1 94.3 -7.1 95.6 0L0 0Z" fill="#fa9845"></path><path d="M0 -47.8C3.7 -47.8 7.3 -47.8 10.6 -46.6C14 -45.5 16.9 -43.2 19.9 -41.3C22.9 -39.5 25.9 -38.1 29 -36.4C32 -34.6 35.1 -32.5 37.2 -29.7C39.4 -26.9 40.5 -23.4 41.8 -20.1C43.1 -16.8 44.4 -13.7 45.5 -10.4C46.5 -7.1 47.1 -3.5 47.8 0L0 0Z" fill="#fbae3c"></path></g></svg>